<?xml version="1.0" encoding="iso-8859-1"?>
<!-- Generator: Adobe Illustrator 29.6.0, SVG Export Plug-In . SVG Version: 9.03 Build 0)  -->
<svg version="1.1" id="Camada_1" xmlns="http://www.w3.org/2000/svg" xmlns:xlink="http://www.w3.org/1999/xlink" x="0px" y="0px"
	 viewBox="0 0 722.924 197.491" style="enable-background:new 0 0 722.924 197.491;" xml:space="preserve">
<g>
	<g>
		<g>
			<path style="fill:#14BFB8;" d="M455.831,86.475v14.349h-3.227V86.475h-4.693v-2.909h12.687v2.909H455.831z"/>
			<path style="fill:#14BFB8;" d="M463.018,100.824V83.566h12.272v2.885h-9.094v4.058h8.336v2.786h-8.336v4.62h9.704v2.909H463.018z
				"/>
			<path style="fill:#14BFB8;" d="M491.52,98.331c-0.806,1.026-2.689,2.933-6.16,2.933c-0.587,0-1.98-0.049-3.472-0.734
				c-1.956-0.929-4.595-3.276-4.595-8.384c0-0.929,0-3.398,1.589-5.671c0.831-1.198,2.811-3.349,6.6-3.349
				c3.299,0,5.035,1.638,5.818,2.738c0.562,0.831,0.905,1.687,1.197,2.591l-3.202,0.831c-0.024-0.22-0.122-0.782-0.44-1.369
				c-0.66-1.222-1.956-1.858-3.324-1.833c-0.978,0-1.662,0.293-2.004,0.464c-1.271,0.636-2.738,2.298-2.738,5.525
				c0,0.488,0.024,2.542,1.026,4.082c0.342,0.513,0.758,0.953,1.247,1.271c1.027,0.709,2.054,0.782,2.518,0.782
				c1.345,0,2.347-0.538,3.178-1.564c0.342-0.416,0.611-0.929,0.684-1.051c0.098-0.22,0.171-0.416,0.318-0.856l3.056,1.271
				C492.449,96.888,492.107,97.573,491.52,98.331z"/>
			<path style="fill:#14BFB8;" d="M505.82,100.824v-7.847h-7.406v7.847h-3.251V83.566h3.251v6.502h7.406v-6.502h3.251v17.258H505.82
				z"/>
			<path style="fill:#14BFB8;" d="M523.543,100.824l-7.553-12.1l0.196,12.1h-3.153V83.566h2.908l7.651,12.173l-0.391-12.173h3.178
				v17.258H523.543z"/>
			<path style="fill:#14BFB8;" d="M543.662,98.795c-0.391,0.415-1.393,1.418-2.933,1.98c-0.538,0.196-1.539,0.489-3.007,0.489
				c-2.444,0-4.302-0.807-5.916-2.665c-1.613-1.833-2.298-3.984-2.298-6.38c0-0.562,0.024-1.882,0.513-3.349
				c1.124-3.446,4.082-5.744,7.773-5.744c3.324,0,5.305,1.809,6.111,2.738c0.905,1.026,2.175,3.031,2.151,6.331
				C546.058,93.27,545.935,96.326,543.662,98.795z M541.78,88.357c-0.904-1.467-2.273-2.273-4.008-2.273
				c-1.076,0-1.858,0.342-2.2,0.513c-1.222,0.66-2.738,2.273-2.738,5.5c0,0.66,0.024,3.838,2.445,5.427
				c1.051,0.684,2.102,0.733,2.541,0.733c0.343,0,1.125-0.025,1.98-0.416c1.271-0.587,2.933-2.053,3.007-5.304
				C542.831,91.119,542.562,89.604,541.78,88.357z"/>
			<path style="fill:#14BFB8;" d="M549.187,100.824V83.566h3.251V97.89h6.844v2.933H549.187z"/>
			<path style="fill:#14BFB8;" d="M574.365,98.795c-0.391,0.415-1.393,1.418-2.933,1.98c-0.538,0.196-1.54,0.489-3.007,0.489
				c-2.445,0-4.302-0.807-5.916-2.665c-1.613-1.833-2.298-3.984-2.298-6.38c0-0.562,0.024-1.882,0.513-3.349
				c1.124-3.446,4.082-5.744,7.773-5.744c3.324,0,5.304,1.809,6.111,2.738c0.904,1.026,2.175,3.031,2.151,6.331
				C576.761,93.27,576.639,96.326,574.365,98.795z M572.483,88.357c-0.905-1.467-2.273-2.273-4.008-2.273
				c-1.076,0-1.858,0.342-2.2,0.513c-1.222,0.66-2.738,2.273-2.738,5.5c0,0.66,0.024,3.838,2.444,5.427
				c1.052,0.684,2.103,0.733,2.543,0.733c0.342,0,1.124-0.025,1.98-0.416c1.271-0.587,2.933-2.053,3.007-5.304
				C573.534,91.119,573.265,89.604,572.483,88.357z"/>
			<path style="fill:#14BFB8;" d="M591.868,100.824l-0.025-1.467c-1.393,1.296-2.811,1.907-4.742,1.907
				c-1.051,0-3.446-0.147-5.524-2.176c-1.003-1.002-2.567-3.153-2.567-6.722c0-2.2,0.66-4.498,2.029-6.233
				c0.782-0.978,2.836-3.007,6.331-3.007c0.489,0,1.589,0.049,2.836,0.513c1.124,0.44,3.3,1.589,4.424,4.571l-3.08,1.222
				c-0.294-0.831-1.198-3.398-4.205-3.398c-0.587,0-1.956,0.098-3.105,1.247c-0.831,0.856-1.711,2.322-1.711,4.987
				c0,0.709,0,3.3,1.98,4.962c0.855,0.709,1.808,0.978,2.908,0.978c1.712,0,3.227-0.831,3.887-2.444
				c0.146-0.342,0.269-0.758,0.366-1.54h-4.302v-2.836h7.26v9.436H591.868z"/>
			<path style="fill:#14BFB8;" d="M604.433,94.004v6.82h-3.202v-6.82l-5.768-10.438h3.666l3.74,7.138l3.765-7.138h3.618
				L604.433,94.004z"/>
			<path style="fill:#14BFB8;" d="M459.473,130.158l-1.003-3.373h-6.477l-1.002,3.373h-3.472l5.842-17.258h3.666l5.891,17.258
				H459.473z M455.244,116.005l-2.396,7.944h4.766L455.244,116.005z"/>
			<path style="fill:#14BFB8;" d="M475.68,130.158l-7.553-12.1l0.196,12.1h-3.153v-17.258h2.908l7.651,12.173l-0.391-12.173h3.177
				v17.258H475.68z"/>
			<path style="fill:#14BFB8;" d="M491.936,129.694c-1.491,0.464-2.689,0.464-4.229,0.464h-5.5v-17.258h6.184
				c0.782,0,1.735,0.049,2.493,0.196c0.855,0.171,2.713,0.734,4.156,2.591c0.757,1.002,1.784,2.933,1.784,5.989
				C496.825,125.098,495.505,128.545,491.936,129.694z M491.741,116.934c-0.294-0.244-0.88-0.684-1.809-0.929
				c-0.831-0.22-1.271-0.196-2.787-0.196h-1.711v11.44h0.855c1.736,0,2.763-0.025,3.545-0.147c0.439-0.073,1.662-0.269,2.542-1.344
				c1.075-1.369,1.026-3.887,1.026-4.107C493.402,119.085,492.62,117.716,491.741,116.934z"/>
			<path style="fill:#14BFB8;" d="M516.919,130.158l-1.003-3.373h-6.477l-1.002,3.373h-3.472l5.842-17.258h3.666l5.891,17.258
				H516.919z M512.69,116.005l-2.396,7.944h4.767L512.69,116.005z"/>
			<path style="fill:#14BFB8;" d="M532.099,130.158l-3.398-6.404h-2.908v6.404h-3.203v-17.258h7.065
				c0.782,0,3.104,0.074,4.644,2.102c1.002,1.32,1.051,2.811,1.051,3.373c0,0.269-0.024,1.125-0.318,1.931
				c-0.269,0.709-1.1,2.2-3.08,2.811l3.838,7.04H532.099z M530.999,116.201c-0.562-0.367-1.222-0.513-2.59-0.513h-2.615v5.378h1.148
				c1.882,0,3.056,0,3.838-0.416c0.489-0.269,1.296-0.905,1.296-2.298C532.075,117.912,532.026,116.885,530.999,116.201z"/>
			<path style="fill:#14BFB8;" d="M551.533,127.665c-0.806,1.026-2.689,2.933-6.16,2.933c-0.587,0-1.98-0.049-3.472-0.734
				c-1.956-0.929-4.595-3.276-4.595-8.384c0-0.929,0-3.398,1.589-5.671c0.831-1.198,2.811-3.349,6.6-3.349
				c3.3,0,5.036,1.638,5.818,2.738c0.562,0.831,0.905,1.687,1.197,2.591l-3.202,0.831c-0.024-0.22-0.122-0.782-0.44-1.369
				c-0.66-1.222-1.956-1.858-3.324-1.833c-0.978,0-1.662,0.293-2.005,0.464c-1.271,0.636-2.738,2.298-2.738,5.525
				c0,0.488,0.025,2.542,1.027,4.082c0.343,0.513,0.758,0.953,1.247,1.271c1.027,0.709,2.054,0.782,2.518,0.782
				c1.345,0,2.347-0.538,3.178-1.564c0.342-0.416,0.611-0.929,0.684-1.051c0.098-0.22,0.171-0.416,0.318-0.856l3.056,1.271
				C552.462,126.223,552.12,126.907,551.533,127.665z"/>
			<path style="fill:#14BFB8;" d="M565.834,130.158v-7.847h-7.407v7.847h-3.251v-17.258h3.251v6.502h7.407v-6.502h3.25v17.258
				H565.834z"/>
			<path style="fill:#14BFB8;" d="M572.996,130.158v-17.258h3.178v17.258H572.996z"/>
			<path style="fill:#14BFB8;" d="M586.637,115.81v14.349h-3.227V115.81h-4.693v-2.909h12.687v2.909H586.637z"/>
			<path style="fill:#14BFB8;" d="M593.823,130.158v-17.258h12.272v2.885h-9.094v4.058h8.336v2.786h-8.336v4.62h9.704v2.909H593.823
				z"/>
			<path style="fill:#14BFB8;" d="M622.326,127.665c-0.806,1.026-2.689,2.933-6.159,2.933c-0.587,0-1.98-0.049-3.472-0.734
				c-1.956-0.929-4.595-3.276-4.595-8.384c0-0.929,0-3.398,1.589-5.671c0.831-1.198,2.811-3.349,6.6-3.349
				c3.3,0,5.036,1.638,5.818,2.738c0.562,0.831,0.905,1.687,1.197,2.591l-3.202,0.831c-0.024-0.22-0.122-0.782-0.44-1.369
				c-0.66-1.222-1.956-1.858-3.324-1.833c-0.978,0-1.662,0.293-2.005,0.464c-1.271,0.636-2.738,2.298-2.738,5.525
				c0,0.488,0.025,2.542,1.027,4.082c0.343,0.513,0.758,0.953,1.247,1.271c1.027,0.709,2.054,0.782,2.518,0.782
				c1.345,0,2.347-0.538,3.178-1.564c0.342-0.416,0.611-0.929,0.684-1.051c0.098-0.22,0.171-0.416,0.318-0.856l3.056,1.271
				C623.255,126.223,622.913,126.907,622.326,127.665z"/>
			<path style="fill:#14BFB8;" d="M632.472,115.81v14.349h-3.227V115.81h-4.693v-2.909h12.687v2.909H632.472z"/>
			<path style="fill:#14BFB8;" d="M653.323,126.638c-0.562,1.735-2.542,3.96-6.771,3.96c-2.029,0-4.058-0.489-5.476-2.054
				c-0.22-0.22-0.806-0.929-1.1-1.857c-0.269-0.88-0.269-1.687-0.269-3.52v-10.267h3.251v10.609c0,1.027,0,1.393,0.171,1.906
				c0.317,1.027,1.247,2.054,3.544,2.054c0.415,0,2.787,0,3.496-1.956c0.195-0.562,0.22-1.027,0.22-2.176v-10.438h3.226v9.949
				C653.615,124.829,653.64,125.661,653.323,126.638z"/>
			<path style="fill:#14BFB8;" d="M667.06,130.158l-3.398-6.404h-2.908v6.404h-3.203v-17.258h7.065c0.782,0,3.104,0.074,4.644,2.102
				c1.002,1.32,1.051,2.811,1.051,3.373c0,0.269-0.024,1.125-0.318,1.931c-0.269,0.709-1.1,2.2-3.08,2.811l3.838,7.04H667.06z
				 M665.96,116.201c-0.562-0.367-1.222-0.513-2.59-0.513h-2.615v5.378h1.148c1.882,0,3.056,0,3.838-0.416
				c0.489-0.269,1.296-0.905,1.296-2.298C667.036,117.912,666.987,116.885,665.96,116.201z"/>
			<path style="fill:#14BFB8;" d="M673.27,130.158v-17.258h12.272v2.885h-9.094v4.058h8.336v2.786h-8.336v4.62h9.704v2.909H673.27z"
				/>
		</g>
		<path style="fill:#14BFB8;" d="M341.986,115.297h63.254l-0.028-0.712h0.002v-6.224c0-2.346-0.176-4.621-0.513-6.817l-0.01-0.241
			h-0.027c-3.045-19.123-18.504-32.137-39.572-32.137c-23.703,0-40.652,16.287-40.652,39.195c0,21.716,16.949,37.076,40.652,37.076
			h30.456l0.094-13.914h-30.456C353.804,131.524,344.864,125.215,341.986,115.297z M341.847,100.683
			c2.701-10.365,11.577-17.348,23.246-17.348c11.551,0,20.306,6.99,23.096,17.365c0.054,0.199,0.1,0.402,0.149,0.604h-46.639
			C341.748,101.096,341.794,100.887,341.847,100.683z"/>
	</g>
	<g>
		<rect x="37.97" y="69.166" style="fill:#14BFB8;" width="16.982" height="76.272"/>
		<path style="fill:#14BFB8;" d="M122.094,101.344h-0.076H95.213c-7.018,0-11.388-3.311-11.388-8.475c0-4.767,4.37-7.68,11.388-7.68
			h48.653h0.076V71.285h-0.076H93.227h-0.076c-16.552,0-27.013,8.342-27.013,21.981c0,13.506,10.461,21.981,27.013,21.981h0.076
			h29.055c7.018,0,11.388,3.311,11.388,8.607c0,4.767-4.37,7.68-11.388,7.68H71.511h-0.076v13.903h0.076h50.507h0.076
			c17.744,0,28.867-8.607,28.867-22.114C150.96,109.818,139.837,101.344,122.094,101.344z"/>
		<path style="fill:#14BFB8;" d="M280.148,133.124c-10.726,0-18.009-7.812-18.009-18.936V85.189h51.64V71.285h-51.64V52.747h-15.89
			v62.235c0,19.333,13.771,32.442,33.899,32.442c20.008,0,33.259-13.002,33.752-32.127l-15.9,0
			C297.532,125.827,290.386,133.124,280.148,133.124z"/>
		<path style="fill:#14BFB8;" d="M199.373,133.389c-14.169,0-24.232-10.594-24.232-25.027c0-14.433,10.064-25.027,24.232-25.027
			c8.961,0,16.276,4.135,20.446,10.891l14.702-5.87c-6.598-11.81-19.283-19.189-35.147-19.189
			c-23.702,0-40.652,16.287-40.652,39.195s16.949,39.195,40.652,39.195c21.113,0,36.593-13.07,39.591-32.26l-16.172,0
			C220.141,126.205,211.187,133.389,199.373,133.389z"/>
		<g>
			<path style="fill:#14BFB8;" d="M55.691,59.608h-18.46v-7.748h18.46V59.608z M38.71,58.13h15.502v-4.791H38.71V58.13z"/>
		</g>
	</g>
</g>
</svg>
